<?xml version="1.0" encoding="iso-8859-1"?>
<!-- Generator: Adobe Illustrator 19.0.0, SVG Export Plug-In . SVG Version: 6.00 Build 0)  -->
<svg version="1.1" id="Capa_1" xmlns="http://www.w3.org/2000/svg" xmlns:xlink="http://www.w3.org/1999/xlink" x="0px" y="0px"
	 viewBox="0 0 491.52 491.52" style="enable-background:new 0 0 491.52 491.52;" xml:space="preserve">
<circle style="fill:#EA8953;" cx="245.76" cy="245.76" r="245.76"/>
<path style="opacity:0.1;enable-background:new    ;" d="M484.879,302.43L320.182,137.732l-0.047,0.113
	c-18.456-20.167-44.904-32.899-74.375-32.899c-55.706,0-100.915,45.21-100.915,100.915v70.912c0,8.18,3.361,15.54,8.688,20.949
	l-0.111,0.009l14.092,14.092c-0.014,0.556-0.09,1.099-0.09,1.659c0,19.04,7.876,36.325,20.673,49.331l-0.056,0.059l120.517,120.517
	C395.839,460.385,464.064,390.577,484.879,302.43z"/>
<path style="fill:#E1E6E9;" d="M316.655,306.772h-141.79c-2.425,0-4.77-0.318-7.029-0.862c-0.275,2.488-0.42,5.012-0.42,7.567
	c0,40.362,35.076,73.082,78.344,73.082c43.268,0,78.344-32.72,78.344-73.082c0-2.555-0.145-5.079-0.42-7.567
	C321.425,306.454,319.08,306.772,316.655,306.772z"/>
<path style="fill:#EBF0F3;" d="M245.76,104.96c-55.73,0-100.907,45.177-100.907,100.907v70.895
	c0,16.575,13.436,30.011,30.011,30.011h141.79c16.575,0,30.011-13.436,30.011-30.011v-70.895
	C346.666,150.137,301.489,104.96,245.76,104.96z"/>
<path style="fill:#64798A;" d="M184.416,306.772c2.055,22.346,28.694,40.04,61.344,40.04s59.289-17.695,61.344-40.04H184.416z"/>
<g>
	<path style="fill:#FFFFFF;" d="M214.56,306.772h-10.718c0,0-2.711,12.627,0,15.338c1.895,1.894,8.822,1.894,10.718,0
		C217.271,319.399,214.56,306.772,214.56,306.772z"/>
	<path style="fill:#FFFFFF;" d="M229.183,306.772h-10.717c0,0-2.712,12.627,0,15.338c1.895,1.894,8.822,1.894,10.717,0
		C231.894,319.399,229.183,306.772,229.183,306.772z"/>
	<path style="fill:#FFFFFF;" d="M243.807,306.772h-10.717c0,0-2.712,12.627,0,15.338c1.895,1.894,8.822,1.894,10.717,0
		C246.518,319.399,243.807,306.772,243.807,306.772z"/>
	<path style="fill:#FFFFFF;" d="M258.43,306.772h-10.717c0,0-2.712,12.627,0,15.338c1.895,1.894,8.822,1.894,10.717,0
		C261.142,319.399,258.43,306.772,258.43,306.772z"/>
	<path style="fill:#FFFFFF;" d="M273.054,306.772h-10.717c0,0-2.712,12.627,0,15.338c1.895,1.894,8.822,1.894,10.717,0
		C275.766,319.399,273.054,306.772,273.054,306.772z"/>
	<path style="fill:#FFFFFF;" d="M287.678,306.772H276.96c0,0-2.711,12.627,0,15.338c1.896,1.894,8.823,1.894,10.718,0
		C290.389,319.399,287.678,306.772,287.678,306.772z"/>
	<path style="fill:#FFFFFF;" d="M276.96,332.316c-1.392,1.392-1.353,5.392-0.987,8.96c4.639-1.823,8.903-4.046,12.694-6.613
		c-0.183-1.02-0.495-1.852-0.99-2.347C285.782,330.422,278.855,330.422,276.96,332.316z"/>
	<path style="fill:#FFFFFF;" d="M273.055,332.316c-1.895-1.894-8.823-1.894-10.718,0c-1.973,1.971-1.078,9.17-0.442,12.96
		c4.217-0.796,8.258-1.88,12.064-3.248C274.395,338.29,274.545,333.806,273.055,332.316z"/>
	<path style="fill:#FFFFFF;" d="M258.43,332.316c-1.895-1.894-8.822-1.894-10.718,0c-2.277,2.278-0.732,11.525-0.179,14.435
		c3.844-0.076,7.606-0.373,11.244-0.917C259.407,342.244,260.503,334.389,258.43,332.316z"/>
	<path style="fill:#FFFFFF;" d="M243.808,332.316c-1.895-1.894-8.823-1.894-10.718,0c-2.074,2.073-0.977,9.928-0.348,13.518
		c3.638,0.545,7.4,0.841,11.244,0.917C244.54,343.841,246.085,334.594,243.808,332.316z"/>
	<path style="fill:#FFFFFF;" d="M229.182,332.316c-1.895-1.894-8.822-1.894-10.718,0c-1.49,1.49-1.34,5.973-0.904,9.712
		c3.806,1.368,7.846,2.452,12.064,3.248C230.26,341.486,231.155,334.287,229.182,332.316z"/>
	<path style="fill:#FFFFFF;" d="M214.56,332.316c-1.895-1.894-8.823-1.894-10.718,0c-0.495,0.495-0.807,1.327-0.99,2.347
		c3.791,2.567,8.055,4.79,12.694,6.613C215.912,337.708,215.951,333.708,214.56,332.316z"/>
</g>
<g>
	<circle style="fill:#64798A;" cx="195.533" cy="195.891" r="23.347"/>
	<circle style="fill:#64798A;" cx="296.003" cy="195.891" r="23.347"/>
	<path style="fill:#64798A;" d="M265.652,262.45c0,16.215-8.906,19.12-19.892,19.12c-10.986,0-19.892-2.905-19.892-19.12
		c0-16.216,8.906-39.601,19.892-39.601C256.746,222.849,265.652,246.234,265.652,262.45z"/>
</g>
<g>
</g>
<g>
</g>
<g>
</g>
<g>
</g>
<g>
</g>
<g>
</g>
<g>
</g>
<g>
</g>
<g>
</g>
<g>
</g>
<g>
</g>
<g>
</g>
<g>
</g>
<g>
</g>
<g>
</g>
</svg>
