<?xml version="1.0" encoding="iso-8859-1"?>
<!-- Generator: Adobe Illustrator 19.0.0, SVG Export Plug-In . SVG Version: 6.00 Build 0)  -->
<svg version="1.1" id="Capa_1" xmlns="http://www.w3.org/2000/svg" xmlns:xlink="http://www.w3.org/1999/xlink" x="0px" y="0px"
	 viewBox="0 0 491.52 491.52" style="enable-background:new 0 0 491.52 491.52;" xml:space="preserve">
<circle style="fill:#EA8953;" cx="245.76" cy="245.76" r="245.76"/>
<path style="opacity:0.1;enable-background:new    ;" d="M472.726,340.104l-89.289-89.289l-1.126-1.126
	c-2.918-2.56-6.81-3.738-10.65-4.148h-0.205l-91.648-91.647c-0.922-0.922-1.946-1.793-2.97-2.509
	c-0.358-0.205-0.666-0.41-1.075-0.41c0,0,0,0-0.051,0c-0.358,0-0.666,0.205-0.973,0.41c-2.662,1.945-5.376,3.943-7.322,6.554
	c-1.638,2.252-2.714,4.915-4.608,6.809c-0.154,0.102-0.256,0.257-0.358,0.359c-2.918,2.611-7.168,3.021-10.854,4.402
	c-3.277,1.179-6.195,3.227-8.499,5.838c-1.126,1.229-2.099,2.662-3.533,3.532c-0.819,0.564-1.741,0.923-2.714,1.229
	c-7.526,2.765-14.95,5.94-22.221,9.37c-0.358,0.154-0.666,0.359-1.024,0.511c-2.304,1.128-4.659,2.305-6.656,3.893
	c-0.307,0.255-0.614,0.46-0.87,0.767c-0.461,0.359-0.87,0.767-1.28,1.229c-2.662,2.97-4.762,6.349-7.27,9.421
	c-2.253,2.815-5.478,4.402-8.243,6.655c-1.229,0.974-2.458,1.997-3.686,3.021c-0.154,0.154-0.358,0.307-0.512,0.461
	c-0.307,0.205-0.563,0.41-0.87,0.716h-0.051c-0.102,0.102-0.205,0.154-0.307,0.307c-0.717,0.511-1.382,1.126-2.048,1.689
	c-0.205,0.205-0.41,0.41-0.614,0.564c-0.102,0.102-0.154,0.205-0.256,0.256c-2.048,1.793-3.994,3.635-5.786,5.633
	c-2.048,2.252-3.942,4.659-5.581,7.167c-0.563,0.87-1.126,1.69-1.638,2.611c-0.512,0.819-1.024,1.741-1.485,2.611
	c-0.307,0.615-0.666,1.229-0.922,1.843c-0.461,0.871-0.819,1.741-1.229,2.662c-0.358,0.871-0.717,1.741-1.075,2.662
	c-0.154,0.359-0.307,0.769-0.461,1.178c-1.536,0.154-3.021,0.359-4.557,0.564c-21.862,2.509-44.032,2.15-66.048,1.791l31.027,85.965
	L278.81,489.245C366.656,477.429,439.785,419.257,472.726,340.104z"/>
<path style="fill:#F6C358;" d="M275.775,150.962c-0.018,0-0.036-0.006-0.055-0.006c-0.367,0.017-0.687,0.24-0.985,0.454
	c-2.67,1.924-5.386,3.893-7.328,6.549c-1.621,2.217-2.69,4.87-4.623,6.797C272.051,164.361,274.903,156.138,275.775,150.962z"/>
<path style="fill:#FCD462;" d="M398.86,275.202c-1.11-3.081-4.387-4.851-7.579-5.586c-3.192-0.735-6.538-0.725-9.671-1.677
	c2.122-2.235,3.83-4.955,4.527-7.957c0.872-3.756-0.923-7.794-3.842-10.313c-2.92-2.52-6.789-3.7-10.621-4.122
	c-3.833-0.423-7.703-0.154-11.56-0.126c-14.635,0.107-29.059-3.26-43.641-4.502c-4.369-0.372-8.849-0.543-13.059,0.683
	c-4.634-0.227-9.381-0.465-14.014-0.692c-2.735-0.134-5.484-0.27-8.16-0.852c-2.397-0.521-4.701-1.393-7.062-2.057
	c-4.102-1.155-8.367-1.682-12.426-2.979c-4.059-1.297-8.041-3.518-10.263-7.154c-1.625-2.659-2.171-5.875-2.006-8.987
	c0.166-3.112,1.006-6.149,1.989-9.106c-0.168-0.58,0.19-1.035,0.481-1.563c2.459-4.47,7-7.37,11.537-9.7
	c4.538-2.331,9.349-4.345,13.114-7.787c5.06-4.626,7.662-11.296,9.871-17.786c2.629-7.724-2.991-16.834-9.659-21.534
	c-0.313-0.221-0.662-0.436-1.041-0.44c-0.872,5.177-3.724,13.4-12.991,13.794c-0.117,0.117-0.226,0.24-0.35,0.351
	c-2.925,2.622-7.143,3.035-10.829,4.391c-3.262,1.2-6.22,3.22-8.524,5.824c-1.112,1.256-2.101,2.67-3.509,3.583
	c-0.829,0.538-1.769,0.878-2.697,1.219c-7.557,2.773-14.984,5.9-22.248,9.367c-3.575,1.706-7.209,3.449-9.852,6.399
	c-2.643,2.951-4.753,6.335-7.237,9.421c-2.237,2.78-5.485,4.414-8.263,6.655c-4.923,3.972-9.869,7.964-14.122,12.646
	c-5.443,5.992-9.682,13.073-12.393,20.7c-23.363,3.125-47.034,2.757-70.602,2.383l31.008,85.977c0,0,21.56-0.449,44.916-5.839
	c0,0,7.636,17.068,94.773,11.678c15.087-0.933,30.038,0.968,45.044-0.848c3.763-0.456,7.503-1.123,11.285-1.372
	c5.551-0.365,11.116,0.177,16.678,0.27c2.861,0.048,5.854-0.056,8.361-1.433c2.508-1.378,4.331-4.411,3.423-7.124
	c-0.535-1.597-1.906-2.805-3.43-3.524c-1.524-0.718-3.207-1.013-4.867-1.301c-15.097-2.616-30.194-5.232-45.291-7.847
	c2.873-2.134,6.564-2.742,10.142-2.678c21.007,0.372,42.021,1.224,63.02,0.545c4.642-0.15,9.427-0.882,13.805-2.437
	c4.377-1.554,8.53-4.662,9.846-9.116c0.483-1.638,0.56-3.367,0.542-5.074c-0.013-1.223-0.089-2.501-0.703-3.559
	c-0.76-1.31-2.196-2.046-3.555-2.713c3.699-0.923,7.127-2.906,9.77-5.652c0.625-0.649,1.212-1.347,1.618-2.151
	c0.714-1.413,0.823-3.049,0.815-4.632C399.353,277.627,399.28,276.367,398.86,275.202z"/>
<path style="fill:#EBF0F3;" d="M163.214,244.135c-0.149,0.393-0.311,0.781-0.452,1.177c-1.52,0.203-3.041,0.39-4.563,0.565
	c4.518,49.148-1.036,73.377-2.49,84.421c2.424-0.468,9.887-1.891,12.376-2.465c0,0,0.07,0.154,0.269,0.428
	c6.303-6.361,24.19-24.529,42.417-44.132C186.767,270.928,170.761,253.543,163.214,244.135z"/>
<path style="fill:#FFFFFF;" d="M163.214,244.135c-0.149,0.393-0.311,0.781-0.452,1.177c-1.52,0.203-3.041,0.39-4.563,0.565
	c4.518,49.148,3.962,72.469,2.507,83.513c2.424-0.467,4.89-0.983,7.378-1.557c0,0,0.07,0.154,0.269,0.428
	c6.303-6.361,24.19-24.529,42.417-44.132C186.767,270.928,170.761,253.543,163.214,244.135z"/>
<path style="fill:#EBF0F3;" d="M163.214,244.135c7.547,9.408,19.07,31.593,43.074,44.794c18.086-19.45,40.989-45.112,48.759-57.252"
	/>
<path style="fill:#FFFFFF;" d="M251.49,227.866c-0.158-0.259-0.297-0.526-0.435-0.795c-19.972-2.656-49.611-7.813-66.909-10.91
	c-3.158,2.648-6.222,5.402-8.991,8.45c-5.16,5.681-9.221,12.347-11.941,19.523c7.547,9.408,23.553,26.793,47.556,39.995
	c18.086-19.45,36.506-40.312,44.277-52.452C253.642,230.622,252.41,229.371,251.49,227.866z"/>
<g>
	<path style="fill:#F6C358;" d="M387.142,291.391c-7.466-0.916-14.987-1.347-22.499-1.672c-7.514-0.333-15.035-0.459-22.555-0.468
		c-7.521-0.003-15.035,0.279-22.554,0.318l-11.284,0.066l-5.646,0.034c-1.884-0.023-3.767-0.011-5.655-0.065l-0.01-0.183
		c3.747-0.434,7.502-0.772,11.261-1.066c3.761-0.248,7.525-0.454,11.292-0.623c7.535-0.281,15.079-0.153,22.614,0.049
		c7.536,0.193,15.069,0.503,22.588,1.02c7.515,0.571,15.026,1.247,22.476,2.408L387.142,291.391z"/>
	<path style="fill:#F6C358;" d="M381.607,268.03c-6.655-0.135-13.311-0.209-19.966-0.251c-6.655-0.074-13.309-0.094-19.96-0.062
		c-6.653,0.034-13.301,0.245-19.945,0.239c-6.647-0.002-13.285-0.023-19.951,0.074l-0.017-0.183
		c1.648-0.265,3.304-0.472,4.961-0.703l4.985-0.472c3.326-0.265,6.659-0.443,9.991-0.553c6.666-0.235,13.331-0.036,19.99,0.129
		c6.66,0.152,13.316,0.356,19.969,0.613c6.653,0.287,13.304,0.607,19.951,0.986L381.607,268.03z"/>
	<path style="fill:#F6C358;" d="M362.175,307.763c0.25-1.642,0.435-3.292,0.51-4.94c0.098-1.643,0.114-3.288-0.034-4.9
		c-0.13-1.621-0.574-3.155-0.918-4.641c-0.392-1.489-0.945-2.867-2.026-4.199l0.1-0.154c1.733,0.508,3.004,2.125,3.667,3.768
		c0.69,1.68,0.674,3.48,0.646,5.178c-0.033,1.714-0.239,3.397-0.523,5.057c-0.326,1.654-0.706,3.288-1.245,4.877L362.175,307.763z"
		/>
	<path style="fill:#F6C358;" d="M367.421,283.252c0.254-1.406,0.443-2.822,0.518-4.235c0.102-1.408,0.105-2.817-0.048-4.185
		c-0.145-1.378-0.598-2.649-0.967-3.857c-0.383-1.234-0.991-2.314-1.967-3.457l0.089-0.161c1.531,0.255,2.876,1.477,3.568,2.896
		c0.358,0.711,0.571,1.477,0.663,2.242c0.075,0.767,0.096,1.523,0.082,2.27c-0.026,1.493-0.221,2.952-0.511,4.379
		c-0.326,1.421-0.711,2.818-1.252,4.162L367.421,283.252z"/>
	<path style="fill:#F6C358;" d="M356.736,261.576c0.232-1.449,0.401-2.907,0.458-4.36c0.082-1.448,0.073-2.898-0.095-4.306
		c-0.156-1.418-0.621-2.73-0.993-3.985c-0.398-1.273-0.997-2.4-2.008-3.56l0.089-0.161c1.574,0.274,2.917,1.563,3.616,3.014
		c0.748,1.469,0.765,3.102,0.765,4.614c-0.011,1.529-0.191,3.027-0.461,4.496c-0.308,1.464-0.672,2.905-1.193,4.298L356.736,261.576
		z"/>
	<path style="fill:#F6C358;" d="M330.495,258.134c0.254-1.406,0.443-2.822,0.518-4.235c0.102-1.407,0.105-2.817-0.048-4.185
		c-0.145-1.378-0.598-2.648-0.968-3.857c-0.383-1.234-0.99-2.314-1.966-3.457l0.089-0.161c1.531,0.255,2.875,1.477,3.568,2.896
		c0.359,0.711,0.572,1.477,0.664,2.242c0.075,0.767,0.096,1.523,0.082,2.27c-0.026,1.493-0.221,2.952-0.511,4.379
		c-0.326,1.421-0.711,2.818-1.252,4.163L330.495,258.134z"/>
	<path style="fill:#F6C358;" d="M337.366,283.252c0.254-1.406,0.443-2.822,0.518-4.235c0.102-1.408,0.105-2.817-0.048-4.185
		c-0.145-1.378-0.597-2.649-0.967-3.857c-0.383-1.234-0.99-2.314-1.966-3.457l0.089-0.161c1.53,0.255,2.875,1.477,3.568,2.896
		c0.358,0.711,0.572,1.477,0.664,2.242c0.075,0.767,0.096,1.523,0.082,2.27c-0.026,1.493-0.221,2.952-0.51,4.379
		c-0.327,1.421-0.711,2.818-1.252,4.162L337.366,283.252z"/>
	<path style="fill:#F6C358;" d="M332.317,305.552c0.253-1.508,0.439-3.025,0.515-4.539c0.1-1.509,0.109-3.021-0.041-4.495
		c-0.137-1.484-0.587-2.87-0.943-4.2c-0.39-1.344-0.971-2.553-1.995-3.776l0.094-0.158c1.622,0.36,2.938,1.761,3.617,3.277
		c0.72,1.542,0.716,3.228,0.696,4.799c-0.029,1.588-0.229,3.143-0.516,4.67c-0.326,1.522-0.709,3.021-1.249,4.471L332.317,305.552z"
		/>
	<path style="fill:#F6C358;" d="M312.031,331.356c0.038-1,0.098-1.993,0.114-2.988l0.065-2.959c0.008-0.984-0.184-1.957-0.052-2.902
		c0.109-0.967,0.268-1.851,0.434-2.914l0.171-0.068c0.415,0.391,0.69,0.904,0.875,1.413c0.182,0.51,0.302,1.033,0.358,1.551
		c0.139,1.041-0.156,2.054-0.322,3.049c-0.167,0.998-0.375,1.984-0.619,2.959c-0.263,0.973-0.516,1.942-0.844,2.894L312.031,331.356
		z"/>
	<path style="fill:#F6C358;" d="M329.675,330.6c0.207-1.38,0.323-2.765,0.37-4.085c0.021-0.669-0.19-1.306-0.092-1.897
		c0.063-0.618,0.206-1.141,0.223-1.958l0.143-0.114c0.205,0.066,0.389,0.183,0.58,0.315c0.147,0.145,0.295,0.307,0.423,0.486
		c0.221,0.352,0.392,0.747,0.463,1.135c0.186,0.787-0.102,1.539-0.285,2.237c-0.18,0.707-0.413,1.387-0.691,2.044
		c-0.296,0.652-0.589,1.293-0.962,1.902L329.675,330.6z"/>
</g>
<path style="fill:#FFFFFF;" d="M287.349,310.958c-3.288-27.31-12.166-61.112-15.594-73.57c-3.339-0.775-6.737-1.325-10.001-2.367
	c-0.722-0.231-1.437-0.502-2.144-0.794c-5.215,45.928-22.759,91.649-28.782,106.337c9.26,0.015,19.869-0.298,32.03-1.051
	c8.341-0.516,16.641-0.167,24.931-0.057C289.105,332.356,288.703,322.211,287.349,310.958z"/>
<path style="fill:#EBF0F3;" d="M289.4,240.908c-2.735-0.134-5.484-0.27-8.16-0.852c-2.397-0.521-4.701-1.393-7.062-2.057
	c-0.802-0.226-1.612-0.423-2.424-0.612c3.429,12.457,12.307,46.258,15.594,73.57l0.001,0.004
	c10.945-30.838,15.312-59.996,16.529-69.476c-0.154,0.041-0.31,0.071-0.463,0.116C298.781,241.373,294.033,241.136,289.4,240.908z"
	/>
<path style="fill:#FFFFFF;" d="M289.4,240.908c-2.735-0.134-5.484-0.27-8.16-0.852c-2.397-0.521-4.701-1.393-7.062-2.057
	c-0.802-0.226-1.612-0.423-2.424-0.612c3.429,12.457,14.15,40.903,17.437,68.215l-1.842,5.359
	c10.945-30.838,15.312-59.996,16.529-69.476c-0.154,0.041-0.31,0.071-0.463,0.116C298.781,241.373,294.033,241.136,289.4,240.908z"
	/>
<path style="fill:#EBF0F3;" d="M168.084,327.834c1.605,2.207,16.477,12.627,67.268,12.71c6.022-14.688,19.041-60.39,24.257-106.318
	c-1.624-0.67-3.178-1.508-4.562-2.548C239.444,256.052,180.642,315.162,168.084,327.834z"/>
<path style="fill:#FFFFFF;" d="M169.383,329.391c1.605,2.207,10.653,11.089,61.444,11.172
	c6.022-14.688,23.566-60.409,28.782-106.337c-1.624-0.67-3.178-1.508-4.562-2.548C239.444,256.052,181.941,316.719,169.383,329.391z
	"/>
<path style="fill:#EBF0F3;" d="M249.484,218.879c0.055-1.034,0.19-2.059,0.375-3.076c-12.42-9.567-29.57-21.308-36.242-25.827
	c-3.239,1.561-6.447,3.242-8.841,5.914c-2.643,2.951-4.753,6.335-7.237,9.421c-2.237,2.78-5.485,4.414-8.263,6.655
	c-1.718,1.386-6.666,5.564-8.359,6.984c17.297,3.098,50.166,5.466,70.138,8.122C249.773,224.579,249.334,221.688,249.484,218.879z"
	/>
<path style="fill:#FFFFFF;" d="M249.484,218.879c0.055-1.034,0.19-2.059,0.375-3.076c-12.42-9.567-29.57-21.308-36.242-25.827
	c-3.239,1.561-6.447,3.242-8.841,5.914c-2.643,2.951-4.753,6.335-7.237,9.421c-2.237,2.78-5.485,4.414-8.263,6.655
	c-1.718,1.386-3.438,2.776-5.131,4.196c17.298,3.097,46.938,8.254,66.909,10.91C249.773,224.579,249.334,221.688,249.484,218.879z"
	/>
<g>
</g>
<g>
</g>
<g>
</g>
<g>
</g>
<g>
</g>
<g>
</g>
<g>
</g>
<g>
</g>
<g>
</g>
<g>
</g>
<g>
</g>
<g>
</g>
<g>
</g>
<g>
</g>
<g>
</g>
</svg>
