<?xml version="1.0" encoding="iso-8859-1"?>
<!-- Generator: Adobe Illustrator 19.0.0, SVG Export Plug-In . SVG Version: 6.00 Build 0)  -->
<svg version="1.1" id="Capa_1" xmlns="http://www.w3.org/2000/svg" xmlns:xlink="http://www.w3.org/1999/xlink" x="0px" y="0px"
	 viewBox="0 0 491.52 491.52" style="enable-background:new 0 0 491.52 491.52;" xml:space="preserve">
<g>
	<defs>
		<filter id="Adobe_OpacityMaskFilter" filterUnits="userSpaceOnUse" x="273.853" y="164.378" width="47.135" height="47.135">
			<feColorMatrix  type="matrix" values="1 0 0 0 0  0 1 0 0 0  0 0 1 0 0  0 0 0 1 0"/>
		</filter>
	</defs>
	<mask maskUnits="userSpaceOnUse" x="273.853" y="164.378" width="47.135" height="47.135" id="SVGID_4_">
	</mask>
	
		<radialGradient id="SVGID_1_" cx="10.4203" cy="576.9036" r="4.603" gradientTransform="matrix(5.12 0 0 -5.12 244.0688 3141.6912)" gradientUnits="userSpaceOnUse">
		<stop  offset="0" style="stop-color:#FFFFFF"/>
		<stop  offset="0.114" style="stop-color:#FBFBFB"/>
		<stop  offset="0.238" style="stop-color:#EDEDED"/>
		<stop  offset="0.367" style="stop-color:#D8D8D8"/>
		<stop  offset="0.5" style="stop-color:#B9B9B9"/>
		<stop  offset="0.635" style="stop-color:#919191"/>
		<stop  offset="0.773" style="stop-color:#616161"/>
		<stop  offset="0.909" style="stop-color:#292929"/>
		<stop  offset="1" style="stop-color:#000000"/>
	</radialGradient>
	<circle style="mask:url(#SVGID_4_);fill:url(#SVGID_1_);" cx="297.421" cy="187.945" r="23.567"/>
</g>
<circle style="fill:#E05B49;" cx="245.76" cy="245.76" r="245.76"/>
<path style="opacity:0.1;enable-background:new    ;" d="M335.342,135.666c-19.385-18.976-45.879-30.72-75.144-30.72h-14.746
	c-3.89,0-7.702,0.175-11.466,0.459c-0.018,0.001-0.036,0.001-0.054,0.003c-3.021,0.204-5.99,0.511-8.909,0.921
	c-1.434,0.205-2.918,0.41-4.352,0.665c-4.352,0.666-8.55,1.587-12.646,2.765c-3.245,0.877-6.384,1.915-9.472,3.029
	c-0.418,0.153-0.828,0.314-1.243,0.471c-2.909,1.086-5.741,2.275-8.491,3.574c-0.112,0.053-0.226,0.101-0.337,0.155
	c-30.355,14.459-50.55,41.711-50.55,80.17v17.869l-13.158,35.277c-1.997,3.685-0.922,8.294,2.509,10.7l10.65,10.65v32.103
	c0,4.84,2.139,9.131,5.478,12.11l-0.058,0.005l51.964,51.965l6.309,18.71l98.796,98.796
	c95.949-21.804,170.519-99.705,187.422-197.424L335.439,135.515L335.342,135.666z"/>
<path style="fill:#FCD462;" d="M367.72,210.423c-1.107-58.435-48.823-105.463-107.523-105.463h-14.722
	c-59.394,0-107.543,32.788-107.543,92.183v17.898l-13.156,35.288c-1.994,3.687-0.916,8.283,2.511,10.697l10.645,7.5v35.234
	c0,8.995,7.292,16.287,16.287,16.287h0.383c12.703,0,24.418,6.854,30.642,17.928l16.363,48.586h138.063l-11.657-51.6
	c-6.449-16.676-3.159-35.874,9.306-48.692C356.506,266.54,368.277,239.784,367.72,210.423z"/>
<path style="fill:#EBF0F3;" d="M178.3,135.057c-0.434-0.414-0.87-0.82-1.303-1.235c47.769,57.791,103.638,105.826,167.133,144.759
	c1.572-1.95,3-4.01,4.436-6.064C285.275,234.609,226.39,191.207,178.3,135.057z"/>
<path style="fill:#FFFFFF;" d="M348.566,272.517c3.339-4.779,6.266-9.829,8.799-15.11c-66.064-30.992-125.888-71.539-179.065-122.35
	C226.39,191.207,285.275,234.609,348.566,272.517z"/>
<path style="fill:#EBF0F3;" d="M177.337,133.932c0.32,0.376,0.642,0.75,0.963,1.125c53.177,50.811,113.001,91.357,179.065,122.35
	c1.067-2.227,2.112-4.461,3.025-6.766C293.783,220.408,230.97,184.112,177.337,133.932z"/>
<path style="fill:#FFFFFF;" d="M367.496,207.169c-0.468-9.551-2.1-18.792-4.901-27.529c-44.362-20.144-86.534-44.068-124.818-74.412
	c-1.28,0.062-2.576,0.079-3.843,0.173c-24.04,1.783-45.65,9.228-62.292,21.784c1.871,2.281,3.789,4.507,5.696,6.747
	c53.632,50.18,116.445,86.476,183.053,116.709c4.935-12.474,7.6-26.029,7.33-40.218C367.7,209.324,367.55,208.259,367.496,207.169z"
	/>
<radialGradient id="SVGID_3_" cx="10.4203" cy="576.9036" r="4.603" gradientTransform="matrix(5.12 0 0 -5.12 244.0688 3141.6912)" gradientUnits="userSpaceOnUse">
	<stop  offset="0" style="stop-color:#CE412D"/>
	<stop  offset="1" style="stop-color:#CE412D"/>
</radialGradient>
<circle style="fill:url(#SVGID_3_);" cx="297.421" cy="187.945" r="23.567"/>
<g>
</g>
<g>
</g>
<g>
</g>
<g>
</g>
<g>
</g>
<g>
</g>
<g>
</g>
<g>
</g>
<g>
</g>
<g>
</g>
<g>
</g>
<g>
</g>
<g>
</g>
<g>
</g>
<g>
</g>
</svg>
