<?xml version="1.0" encoding="iso-8859-1"?>
<!-- Generator: Adobe Illustrator 19.0.0, SVG Export Plug-In . SVG Version: 6.00 Build 0)  -->
<svg version="1.1" id="Capa_1" xmlns="http://www.w3.org/2000/svg" xmlns:xlink="http://www.w3.org/1999/xlink" x="0px" y="0px"
	 viewBox="0 0 491.52 491.52" style="enable-background:new 0 0 491.52 491.52;" xml:space="preserve">
<circle style="fill:#EA8953;" cx="245.76" cy="245.76" r="245.76"/>
<path style="opacity:0.1;enable-background:new    ;" d="M490.523,267.315L362.351,139.143l-0.043,0.056
	c-13.494-13.264-31.511-21.438-51.372-21.438c-26.714,0-50.101,14.737-63.55,36.892l-13.347-13.348
	c-13.67-14.532-32.55-23.544-53.451-23.544c-41.768,0-75.626,35.865-75.626,80.108c0,32.495,28.288,71.172,59.499,103.984
	l-0.025,0.006l0.689,0.689c5.987,6.27,12.06,12.323,18.07,18.07L336.66,474.084C421.011,440.469,482.33,361.527,490.523,267.315z"/>
<path style="fill:#D15241;" d="M180.586,117.76c-41.768,0-75.626,35.865-75.626,80.108c0,72.505,140.793,175.887,140.8,175.892
	V157.375C232.619,133.7,208.388,117.76,180.586,117.76z"/>
<path style="fill:#CE412D;" d="M310.935,117.76c-27.803,0-52.035,15.94-65.175,39.616v-0.001v216.384v0
	c0,0,140.8-106.786,140.8-175.892C386.56,153.625,352.701,117.76,310.935,117.76z"/>
<g>
</g>
<g>
</g>
<g>
</g>
<g>
</g>
<g>
</g>
<g>
</g>
<g>
</g>
<g>
</g>
<g>
</g>
<g>
</g>
<g>
</g>
<g>
</g>
<g>
</g>
<g>
</g>
<g>
</g>
</svg>
