<?xml version="1.0" encoding="iso-8859-1"?>
<!-- Generator: Adobe Illustrator 19.0.0, SVG Export Plug-In . SVG Version: 6.00 Build 0)  -->
<svg version="1.1" id="Capa_1" xmlns="http://www.w3.org/2000/svg" xmlns:xlink="http://www.w3.org/1999/xlink" x="0px" y="0px"
	 viewBox="0 0 512 512" style="enable-background:new 0 0 512 512;" xml:space="preserve">
<g>
	<g>
		<path d="M436.03,42.773c-41.886,0-75.964,34.078-75.964,75.97c0,10.578,8.574,19.152,19.152,19.152s19.152-8.574,19.152-19.152
			c0-20.774,16.892-37.666,37.659-37.666c20.774,0,37.666,16.892,37.666,37.666s-16.892,37.666-37.666,37.666H19.152
			C8.574,156.409,0,164.983,0,175.561s8.574,19.152,19.152,19.152H436.03c41.886,0,75.97-34.078,75.97-75.97
			S477.916,42.773,436.03,42.773z"/>
	</g>
</g>
<g>
	<g>
		<path d="M485.187,237.486H19.152C8.574,237.486,0,246.06,0,256.638s8.574,19.152,19.152,19.152h466.035
			c10.578,0,19.152-8.574,19.152-19.152S495.765,237.486,485.187,237.486z"/>
	</g>
</g>
<g>
	<g>
		<path d="M436.03,317.293H19.152C8.574,317.293,0,325.867,0,336.445s8.574,19.152,19.152,19.152H436.03
			c20.774,0,37.666,16.892,37.666,37.666c0,20.767-16.892,37.659-37.666,37.659c-20.767,0-37.659-16.892-37.659-37.659
			c0-10.578-8.574-19.152-19.152-19.152s-19.152,8.574-19.152,19.152c0,41.886,34.072,75.964,75.964,75.964
			c41.886,0,75.97-34.078,75.97-75.964C512,351.378,477.922,317.293,436.03,317.293z"/>
	</g>
</g>
<g>
</g>
<g>
</g>
<g>
</g>
<g>
</g>
<g>
</g>
<g>
</g>
<g>
</g>
<g>
</g>
<g>
</g>
<g>
</g>
<g>
</g>
<g>
</g>
<g>
</g>
<g>
</g>
<g>
</g>
</svg>
